<svg width="39" height="46" viewBox="0 0 39 46" fill="none" xmlns="http://www.w3.org/2000/svg">
<path d="M19.5862 2L19.543 22.9443L38.0438 33.4557L38.087 12.4993L19.5862 2Z" fill="#41536F"/>
<path d="M38.5 33.791L19.7471 44.4346L19.5 44.5752L19.2529 44.4346L0.5 33.791V12.209L19.2529 1.56543L19.5 1.4248L19.7471 1.56543L38.5 12.209V33.791Z" stroke="white"/>
<path d="M19.5441 22.9503L19.5873 2H19.5811L1.03703 12.4389L1 33.3892L1.00617 33.3952L19.5441 22.9503Z" fill="#2A3952"/>
<path d="M24.2351 25.5987V24.7706L22.7911 24.7827L19.5636 22.9512L16.2621 24.8068L14.5712 24.8129V25.7619L1.0257 33.3961L1.01953 33.3901L19.5266 43.9015L38.0707 33.4565L24.2351 25.5987Z" fill="#496783"/>
<path d="M14.9962 11.8044L15.0147 11.8165L12.2069 10.2207L9.39289 11.8044L9.38672 34.6466L12.176 36.2242V13.388L14.9962 11.8044Z" fill="#A7F370"/>
<path d="M29.7137 34.653V11.8168L29.6952 11.8047L26.8812 13.3884L26.875 36.2246L26.8997 36.2427L29.7137 34.653Z" fill="#4FAF38"/>
<path d="M26.9046 10.2207L24.0906 11.8044V20.4783L15.0129 20.4722H14.9759L12.7852 22.7631L26.2998 22.7752L24.0906 25.066L24.0844 34.6466L26.8737 36.2242L26.8799 13.388L29.6939 11.8044L29.7124 11.8165L26.9046 10.2207Z" fill="#A7F370"/>
<path d="M12.7867 22.7634L15.0145 20.4725V11.8168L14.996 11.8047L12.1758 13.3884V36.2246L12.1943 36.2427L15.0083 34.653L15.0145 25.0664H24.1168L26.3014 22.7755L12.7867 22.7634Z" fill="#4FAF38"/>
</svg>
